<svg xmlns="http://www.w3.org/2000/svg" version="1.1" xmlns:xlink="http://www.w3.org/1999/xlink" xmlns:svgjs="http://svgjs.dev/svgjs" width="1000" height="882" viewBox="0 0 1000 882"><g transform="matrix(1,0,0,1,0.13490607189351067,0.35774442051081223)"><svg viewBox="0 0 280 247" data-background-color="#ffffff" preserveAspectRatio="xMidYMid meet" height="882" width="1000" xmlns="http://www.w3.org/2000/svg" xmlns:xlink="http://www.w3.org/1999/xlink"><g id="tight-bounds" transform="matrix(1,0,0,1,-0.03775251138250724,-0.09997365579206985)"><svg viewBox="0 0 280.07552621151274 247.2" height="247.2" width="280.07552621151274"><g><svg viewBox="0 0 280.07552621151274 247.2" height="247.2" width="280.07552621151274"><g><svg viewBox="0 0 280.07552621151274 247.2" height="247.2" width="280.07552621151274"><g id="textblocktransform"><svg viewBox="0 0 280.07552621151274 247.2" height="247.2" width="280.07552621151274" id="textblock"><g><svg viewBox="0 0 280.07552621151274 247.2" height="247.2" width="280.07552621151274"><path d="M279.42 53.02C278.103 27.36 274.351 20.227 274.351 20.227 262.829-6.202 248.451-0.506 235.534 3.292 212.729 3.446 190.016 9.091 167.264 12.119 119.507 12.581 71.342 4.986 23.823 23.717 19.359 29.464-4.631 24.846 0.794 56.304 2.216 69.39 7.404 83.913 7.246 95.922 7.957 98.026 8.944 93.202 9.366 96.23 10.84 104.39 13.25 100.541 15.225 105.365 12.473 118.246 14.448 128.971 16.331 140.21 13.013 143.135 8.76 141.749 6.851 151.449 6.653 158.479 5.587 157.145 4.415 156.837 3.559 156.632 1.834 157.402 2.124 159.608 3.111 167.152-1.128 171.514 1.531 178.904-0.299 186.91 2.795 193.838 2.374 202.511 2.321 204.255 2.611 205.744 3.072 206.154 5.113 208.361 2.137 212.672 2.453 217.342 23.388 249.262 46.101 227.195 67.55 241.872 73.12 231.608 68.933 245.516 71.158 243.36 72.896 240.846 74.16 251.263 76.122 245.362 76.425 243.668 75.964 239.665 77.044 240.435 77.61 240.846 78.11 240.743 78.189 238.382 78.308 234.841 77.268 237.048 76.991 235.201 79.98 225.861 79.243 248.081 82.047 247.158 81.916 244.438 81.099 240.538 82.771 241.051 84.43 237.151 84.483 233.918 85.958 242.693 86.01 244.592 86.274 245.926 86.695 246.85 91.304 237.305 95.886 250.237 100.718 245.926 103.681 241.205 106.525 248.492 109.527 246.696 110.58 245.259 111.647 242.693 112.66 247.004 125.077 247.928 138.31 244.079 150.081 247.158 181.537 241.41 215.152 249.518 248.319 241.923 256.141 238.998 264.265 234.841 271.888 231.506 271.888 231.506 278.064 222.371 278.064 181.316S279.38 145.393 279.578 112.703C279.775 80.013 280.697 78.679 279.38 53.02Z" opacity="1" fill="#ed2647" data-fill-palette-color="tertiary"></path><g transform="matrix(1,0,0,1,55.76832000000002,26.230666666666668)"><svg width="168.5388862115127" viewBox="2.35 -24.2 21.549999999999997 24.9" height="194.73866666666666" data-palette-color="#ffffff"><path d="M14.35-13.9Q18.95-12.65 21.43-10.78 23.9-8.9 23.9-5.75L23.9-5.75Q23.9-2.85 21.45-1.07 19 0.7 15.4 0.7L15.4 0.7Q12.9 0.7 10.48-0.18 8.05-1.05 6.15-2.6L6.15-2.6 6.15 0.05 2.35 0.05 2.35-7.6 4.5-7.8Q6.4-5.65 9.28-4.13 12.15-2.6 14.9-2.6L14.9-2.6Q16.75-2.6 17.8-3.3 18.85-4 18.85-5.3L18.85-5.3Q18.85-6.8 17.2-7.78 15.55-8.75 11.8-9.75L11.8-9.75Q7.3-10.95 4.88-12.78 2.45-14.6 2.45-17.55L2.45-17.55Q2.45-19.4 3.48-20.93 4.5-22.45 6.38-23.33 8.25-24.2 10.7-24.2L10.7-24.2Q13.1-24.2 15.28-23.4 17.45-22.6 19.05-21.15L19.05-21.15 19.05-23.55 22.8-23.55 22.8-15.95 20.6-15.7Q19.2-18.05 16.78-19.48 14.35-20.9 11.95-20.9L11.95-20.9Q10-20.9 8.75-20.13 7.5-19.35 7.5-18.1L7.5-18.1Q7.5-16.75 9.15-15.83 10.8-14.9 14.35-13.9L14.35-13.9Z" opacity="1" transform="matrix(1,0,0,1,0,0)" fill="#ffffff" class="wordmark-text-0" data-fill-palette-color="quaternary" id="text-0"></path></svg></g></svg></g></svg></g></svg></g><g></g></svg></g><defs></defs></svg><rect width="280.07552621151274" height="247.2" fill="none" stroke="none" visibility="hidden"></rect></g></svg></g></svg>